<svg width="20" height="20" viewBox="0 0 20 20" fill="none" xmlns="http://www.w3.org/2000/svg">
<path d="M13.5675 8.93252C13.6257 8.99058 13.6719 9.05954 13.7034 9.13548C13.7349 9.21141 13.7511 9.29281 13.7511 9.37502C13.7511 9.45723 13.7349 9.53863 13.7034 9.61456C13.6719 9.69049 13.6257 9.75946 13.5675 9.81752L9.8175 13.5675C9.75944 13.6257 9.69047 13.6719 9.61454 13.7034C9.53861 13.7349 9.4572 13.7511 9.375 13.7511C9.29279 13.7511 9.21139 13.7349 9.13545 13.7034C9.05952 13.6719 8.99055 13.6257 8.9325 13.5675L7.0575 11.6925C6.99939 11.6344 6.95329 11.5654 6.92184 11.4895C6.89039 11.4136 6.87421 11.3322 6.87421 11.25C6.87421 11.1678 6.89039 11.0865 6.92184 11.0105C6.95329 10.9346 6.99939 10.8656 7.0575 10.8075C7.17485 10.6902 7.33403 10.6242 7.5 10.6242C7.58218 10.6242 7.66355 10.6404 7.73948 10.6719C7.8154 10.7033 7.88439 10.7494 7.9425 10.8075L9.375 12.2413L12.6825 8.93252C12.7406 8.87431 12.8095 8.82814 12.8855 8.79663C12.9614 8.76512 13.0428 8.7489 13.125 8.7489C13.2072 8.7489 13.2886 8.76512 13.3645 8.79663C13.4405 8.82814 13.5094 8.87431 13.5675 8.93252Z" fill="#363636"/>
<path d="M4.375 0C4.54076 0 4.69973 0.065848 4.81694 0.183058C4.93415 0.300269 5 0.45924 5 0.625V1.25H15V0.625C15 0.45924 15.0658 0.300269 15.1831 0.183058C15.3003 0.065848 15.4592 0 15.625 0C15.7908 0 15.9497 0.065848 16.0669 0.183058C16.1842 0.300269 16.25 0.45924 16.25 0.625V1.25H17.5C18.163 1.25 18.7989 1.51339 19.2678 1.98223C19.7366 2.45107 20 3.08696 20 3.75V17.5C20 18.163 19.7366 18.7989 19.2678 19.2678C18.7989 19.7366 18.163 20 17.5 20H2.5C1.83696 20 1.20107 19.7366 0.732233 19.2678C0.263392 18.7989 0 18.163 0 17.5V3.75C0 3.08696 0.263392 2.45107 0.732233 1.98223C1.20107 1.51339 1.83696 1.25 2.5 1.25H3.75V0.625C3.75 0.45924 3.81585 0.300269 3.93306 0.183058C4.05027 0.065848 4.20924 0 4.375 0V0ZM1.25 5V17.5C1.25 17.8315 1.3817 18.1495 1.61612 18.3839C1.85054 18.6183 2.16848 18.75 2.5 18.75H17.5C17.8315 18.75 18.1495 18.6183 18.3839 18.3839C18.6183 18.1495 18.75 17.8315 18.75 17.5V5H1.25Z" fill="#363636"/>
</svg>
