<svg width="100" height="49" viewBox="0 0 100 49" fill="none" xmlns="http://www.w3.org/2000/svg">
<path fill-rule="evenodd" clip-rule="evenodd" d="M28.4553 0.318607C28.3746 0.525979 28.3463 1.21318 28.3922 1.84584L28.4759 2.99574H30.3476H32.2192V1.54651V0.0972703L30.4107 0.0192737C29.034 -0.0400132 28.5671 0.031395 28.4553 0.318607ZM58.8235 2.82736V5.42545L57.5048 5.57933C55.0061 5.87102 52.8361 7.50128 52.1267 9.6198C51.6725 10.9763 51.6586 14.0502 52.1 15.5498C52.7866 17.8831 54.6283 19.4119 57.4778 20.014L58.8235 20.2985V22.7799V25.2613H60.6952H62.5668V22.7767V20.2922L63.9706 20.0026C67.0783 19.3621 68.9529 17.544 69.511 14.6299C70.4449 9.75261 68.1612 6.07839 63.8856 5.57933L62.5668 5.42545V2.82736V0.229019H60.6952H58.8235V2.82736ZM10.6933 4.31507L7.6254 7.34714L15.0425 14.6568L22.4599 21.9662V11.6248V1.28301H18.1107H13.7612L10.6933 4.31507ZM78.9505 5.48316C78.4762 5.59883 77.7845 5.88947 77.4131 6.12925C76.7679 6.54584 76.738 6.54136 76.738 6.03202C76.738 5.54771 76.5668 5.49896 74.8663 5.49896H72.9947V15.3801V25.2613H74.8663H76.738V22.0814V18.9015L77.5174 19.4482C79.2342 20.653 82.304 20.3557 83.8468 18.8354C85.0032 17.6957 85.2912 16.4815 85.2912 12.7451C85.2912 9.19267 85.0398 7.97584 84.0719 6.84228C83.1013 5.70555 80.6783 5.06261 78.9505 5.48316ZM91.7342 5.50977C90.6051 5.73927 88.5027 6.88549 88.5027 7.27125C88.5027 7.37243 89.0078 7.9624 89.6249 8.58215L90.7473 9.70912L91.3845 9.11915C91.8936 8.64776 92.3345 8.52918 93.5765 8.52918C95.4511 8.52918 96.2567 9.08385 96.2567 10.3747V11.2163L93.7267 11.3802C90.9126 11.5623 89.7607 11.9378 88.7701 12.996C88.1733 13.6334 88.1016 13.9354 88.1016 15.8167C88.1016 17.9068 88.1096 17.931 89.0829 18.8101C90.7987 20.3597 93.6185 20.6445 95.6353 19.472C96.5185 18.9584 96.5241 18.9584 96.5241 19.4733C96.5241 19.9352 96.7123 19.9913 98.262 19.9913H100V14.5137C100 9.35525 99.965 8.96791 99.3984 7.86754C98.9556 7.00749 98.4791 6.54452 97.5936 6.1137C96.2005 5.43625 93.4762 5.15536 91.7342 5.50977ZM28.6096 12.7451V19.9913H30.3476H32.0856V12.7451V5.49896H30.3476H28.6096V12.7451ZM36.3636 12.7451V19.9913H38.0925H39.8214L39.8973 17.1587L39.9733 14.3261L42.3128 14.25L44.6524 14.1738V17.0826V19.9913H46.5241H48.3957V12.7451V5.49896H46.5241H44.6524V8.27596V11.053L42.3128 10.9768L39.9733 10.9007L39.8971 8.19981L39.8209 5.49896H38.0922H36.3636V12.7451ZM58.8235 12.7451V16.8293H58.1757C55.1056 16.8293 54.3794 10.0912 57.323 8.91916C58.8262 8.32049 58.8235 8.31364 58.8235 12.7451ZM65.012 9.68752C65.8374 10.5797 66.1746 12.1459 65.9123 13.8703C65.689 15.3374 64.3529 16.8293 63.262 16.8293H62.5668V12.7122V8.59506L63.4358 8.75922C63.9139 8.84933 64.623 9.26698 65.012 9.68752ZM80.7206 9.12205C81.534 9.78475 81.9425 12.2379 81.5786 14.2734C81.219 16.2855 80.7305 16.8293 79.2831 16.8293C77.604 16.8293 76.9717 16.0325 76.8027 13.7032C76.6313 11.3433 76.8834 10.0746 77.6794 9.29016C78.4519 8.52892 79.8947 8.44908 80.7206 9.12205ZM3.00374 11.893L0 14.8613V19.1392V23.4168H10.4928H20.9856L13.6364 16.1706C9.59439 12.1852 6.22406 8.92443 6.14733 8.92443C6.07032 8.92443 4.65561 10.2604 3.00374 11.893ZM96.2567 14.9849C96.2567 16.2352 95.5444 17.0786 94.4519 17.1221C92.331 17.2061 91.4438 16.7237 91.4438 15.486C91.4438 14.3759 92.3027 13.9309 94.4447 13.9309H96.2567V14.9849ZM0 29.8108V34.0971L3.07674 37.1205L6.15348 40.1439L13.5709 32.8344L20.988 25.5248H10.4941H0V29.8108ZM14.9746 34.3506L7.62647 41.5955L10.6938 44.627L13.7612 47.6585H18.1107H22.4599V37.3821C22.4599 31.7301 22.4289 27.1057 22.3912 27.1057C22.3535 27.1057 19.016 30.366 14.9746 34.3506ZM28.4059 38.8972L28.4759 48.8443L30.2807 48.9223L32.0856 49V45.6765V42.3528L32.9219 42.9396C34.6075 44.1224 37.7947 43.8362 39.2842 42.3683C40.3989 41.2698 40.7013 39.9109 40.696 36.0259C40.6904 32.1752 40.2594 30.7865 38.7369 29.7165C37.9607 29.1708 37.5289 29.082 35.6564 29.082C33.9575 29.082 33.365 29.1834 32.9615 29.5431C32.2917 30.1404 32.0856 30.1249 32.0856 29.4772C32.0856 29.0003 31.9072 28.9502 30.2107 28.9502H28.3358L28.4059 38.8972ZM45.8556 29.3273C45.4144 29.5362 44.7527 29.946 44.385 30.2377L43.7166 30.7678L44.8898 31.948L46.0628 33.1282L46.8505 32.5543C47.4305 32.132 48.0184 31.9804 49.0791 31.9804C50.8094 31.9804 51.6275 32.6081 51.6947 33.9872L51.738 34.8789L48.9305 35.0107C45.7599 35.1595 44.6864 35.5651 43.8396 36.9339C43.2131 37.9463 43.1353 40.2287 43.6912 41.2819C44.6102 43.0226 46.4815 43.8657 48.884 43.6215C49.7634 43.5319 50.6706 43.2478 51.1182 42.9219C51.8706 42.3736 51.8717 42.3736 51.8717 42.9077C51.8717 43.3907 52.0412 43.4426 53.6238 43.4426H55.3759L55.2949 37.5798C55.2179 32.0039 55.1848 31.6766 54.6176 30.893C53.6446 29.5489 52.3746 29.0983 49.3316 29.0177C47.4249 28.9674 46.4275 29.0561 45.8556 29.3273ZM60.693 31.9146C60.6909 35.1919 60.3636 37.6614 59.7219 39.2416C59.3671 40.1159 59.1775 40.2806 58.527 40.2806H57.754V43.7061V47.1315H59.492H61.2299V45.2871V43.4426H65.3743H69.5187V45.2871V47.1315H71.2567H72.9947V43.7061V40.2806H72.0588H71.123V34.6154V28.9502H65.9091H60.6952L60.693 31.9146ZM77.4064 29.3273C76.9652 29.5362 76.3035 29.946 75.9358 30.2377L75.2674 30.7678L76.4406 31.948L77.6136 33.1282L78.4013 32.5543C78.9813 32.132 79.5693 31.9804 80.63 31.9804C82.3495 31.9804 83.0971 32.5525 83.2128 33.9567L83.2888 34.8789L80.3476 35.0107C77.8235 35.1237 77.2826 35.2294 76.5334 35.7561C75.2243 36.6762 74.7909 37.7054 74.9134 39.6037C75.0965 42.4381 76.473 43.5743 79.7235 43.5743C81.438 43.5743 81.9083 43.476 82.5979 42.9736C83.4045 42.386 83.4225 42.3844 83.4225 42.9077C83.4225 43.3904 83.5922 43.4426 85.1604 43.4426H86.8984L86.8941 37.8433C86.8898 32.5364 86.8583 32.1902 86.2925 31.2131C85.3668 29.6161 84.0858 29.0954 80.8823 29.0145C78.9813 28.9666 77.9767 29.0569 77.4064 29.3273ZM36.0706 32.5733C37.3692 33.6268 37.4826 38.2646 36.2444 39.6833C35.4963 40.5402 34.0064 40.6445 33.1698 39.8985C31.6917 38.5803 31.7294 33.5475 33.2249 32.5151C34.0048 31.9768 35.3698 32.0047 36.0706 32.5733ZM67.5872 36.2623L67.661 40.2806H65.3931H63.1254L63.5353 39.1607C63.761 38.545 64.0059 36.8551 64.0797 35.4059C64.1535 33.9567 64.2628 32.6168 64.323 32.4284C64.4 32.1865 64.8856 32.109 65.9727 32.1649L67.5134 32.2439L67.5872 36.2623ZM51.6743 38.5439C51.5936 39.8456 51.0321 40.4595 49.7225 40.6774C47.9307 40.976 46.5471 39.9584 46.8938 38.5971C47.1307 37.667 47.8805 37.3924 50 37.4591L51.738 37.5139L51.6743 38.5439ZM83.285 37.6396C83.3738 37.7811 83.3136 38.3829 83.1513 38.9771C82.9123 39.8519 82.6725 40.1325 81.8877 40.4558C80.2668 41.1233 78.3422 40.3897 78.3422 39.1044C78.3422 38.4598 78.819 37.7737 79.4118 37.565C80.12 37.3155 83.1179 37.3732 83.285 37.6396Z" fill="#363636"/>
</svg>
