<svg width="84" height="10" viewBox="0 0 84 10" fill="none" xmlns="http://www.w3.org/2000/svg">
<path d="M0.697266 0.46875H3.43359C4.00391 0.46875 4.49023 0.566406 4.89258 0.761719C5.29492 0.957031 5.60352 1.24609 5.81836 1.62891C6.0332 2.01172 6.14062 2.48438 6.14062 3.04688C6.14062 3.50781 6.07812 3.90234 5.95312 4.23047C5.82812 4.55469 5.65039 4.82617 5.41992 5.04492C5.18945 5.25977 4.91406 5.43164 4.59375 5.56055L4.07227 5.87109H1.85156L1.8457 4.44727H3.38672C3.62109 4.44727 3.81445 4.39648 3.9668 4.29492C4.12305 4.18945 4.23828 4.04297 4.3125 3.85547C4.39062 3.66406 4.42969 3.44141 4.42969 3.1875C4.42969 2.91797 4.39453 2.6875 4.32422 2.49609C4.25781 2.30078 4.15039 2.15234 4.00195 2.05078C3.85742 1.94531 3.66797 1.89258 3.43359 1.89258H2.41406V9H0.697266V0.46875ZM4.57031 9L3.00586 5.19727L4.80469 5.19141L6.4043 8.91797V9H4.57031ZM13.1885 7.58203V9H9.47953V7.58203H13.1885ZM10.0127 0.46875V9H8.29594V0.46875H10.0127ZM12.6905 3.92578V5.30273H9.47953V3.92578H12.6905ZM13.1768 0.46875V1.89258H9.47953V0.46875H13.1768ZM19.8848 7.58203V9H16.3399V7.58203H19.8848ZM16.8673 0.46875V9H15.1505V0.46875H16.8673ZM25.0577 1.99219L23.2237 9H21.4132L24.0792 0.46875H25.2101L25.0577 1.99219ZM26.505 9L24.6593 1.99219L24.4894 0.46875H25.6378L28.3273 9H26.505ZM26.5695 5.81836V7.24219H22.7198V5.81836H26.5695ZM32.797 0.46875V9H31.092V0.46875H32.797ZM34.9181 0.46875V1.89258H29.0119V0.46875H34.9181ZM38.6555 0.46875V9H36.9504V0.46875H38.6555ZM47.0745 4.07227V5.49609C47.0745 6.09766 47.0002 6.625 46.8518 7.07812C46.7073 7.52734 46.5002 7.9043 46.2307 8.20898C45.9651 8.50977 45.6428 8.73633 45.2639 8.88867C44.8889 9.04102 44.4729 9.11719 44.0159 9.11719C43.5588 9.11719 43.1409 9.04102 42.762 8.88867C42.387 8.73633 42.0627 8.50977 41.7893 8.20898C41.5198 7.9043 41.3108 7.52734 41.1623 7.07812C41.0139 6.625 40.9397 6.09766 40.9397 5.49609V4.07227C40.9397 3.45508 41.012 2.91602 41.1565 2.45508C41.301 1.99023 41.51 1.60352 41.7834 1.29492C42.0569 0.982422 42.3811 0.748047 42.7561 0.591797C43.1311 0.431641 43.5471 0.351562 44.0041 0.351562C44.4612 0.351562 44.8772 0.431641 45.2522 0.591797C45.6272 0.748047 45.9514 0.982422 46.2248 1.29492C46.4983 1.60352 46.7073 1.99023 46.8518 2.45508C47.0002 2.91602 47.0745 3.45508 47.0745 4.07227ZM45.3694 5.49609V4.06055C45.3694 3.6543 45.3401 3.30859 45.2815 3.02344C45.2229 2.73438 45.135 2.49805 45.0178 2.31445C44.9006 2.13086 44.758 1.99609 44.5901 1.91016C44.4221 1.82422 44.2268 1.78125 44.0041 1.78125C43.7815 1.78125 43.5842 1.82422 43.4123 1.91016C43.2444 1.99609 43.1018 2.13086 42.9846 2.31445C42.8713 2.49805 42.7854 2.73438 42.7268 3.02344C42.6721 3.30859 42.6448 3.6543 42.6448 4.06055V5.49609C42.6448 5.88672 42.6741 6.2207 42.7327 6.49805C42.7912 6.77539 42.8791 7.00195 42.9963 7.17773C43.1135 7.35352 43.2561 7.48438 43.4241 7.57031C43.5959 7.65234 43.7932 7.69336 44.0159 7.69336C44.2346 7.69336 44.428 7.65234 44.5959 7.57031C44.7678 7.48438 44.9104 7.35352 45.0237 7.17773C45.137 7.00195 45.2229 6.77539 45.2815 6.49805C45.3401 6.2207 45.3694 5.88672 45.3694 5.49609ZM55.2473 0.46875V9H53.5891L50.9114 3.66211V9H49.2825V0.46875H50.9173L53.6184 5.86523V0.46875H55.2473ZM61.1995 6.75586C61.1995 6.60352 61.1859 6.46484 61.1585 6.33984C61.1312 6.21484 61.0726 6.09961 60.9827 5.99414C60.8968 5.88867 60.7698 5.7832 60.6019 5.67773C60.4378 5.57227 60.223 5.46289 59.9573 5.34961C59.6409 5.2168 59.3343 5.07617 59.0374 4.92773C58.7405 4.77539 58.473 4.59961 58.2347 4.40039C57.9964 4.20117 57.807 3.9668 57.6663 3.69727C57.5296 3.42383 57.4613 3.10352 57.4613 2.73633C57.4613 2.37695 57.5257 2.05078 57.6546 1.75781C57.7874 1.46484 57.9749 1.21484 58.2171 1.00781C58.4593 0.796875 58.7425 0.634766 59.0667 0.521484C59.3948 0.408203 59.7601 0.351562 60.1624 0.351562C60.7093 0.351562 61.182 0.464844 61.5804 0.691406C61.9827 0.917969 62.2933 1.22852 62.512 1.62305C62.7347 2.01758 62.846 2.4707 62.846 2.98242H61.1351C61.1351 2.74023 61.0999 2.52734 61.0296 2.34375C60.9632 2.15625 60.8558 2.00977 60.7073 1.9043C60.5589 1.79883 60.3675 1.74609 60.1331 1.74609C59.9144 1.74609 59.7327 1.79102 59.5882 1.88086C59.4476 1.9668 59.3421 2.08594 59.2718 2.23828C59.2054 2.38672 59.1722 2.55469 59.1722 2.74219C59.1722 2.88281 59.2054 3.00977 59.2718 3.12305C59.3421 3.23242 59.4378 3.33203 59.5589 3.42188C59.68 3.50781 59.8226 3.5918 59.9866 3.67383C60.1546 3.75586 60.3382 3.83594 60.5374 3.91406C60.9241 4.06641 61.2659 4.23438 61.5628 4.41797C61.8597 4.59766 62.1077 4.80078 62.307 5.02734C62.5062 5.25 62.6566 5.50195 62.7581 5.7832C62.8597 6.06445 62.9105 6.38477 62.9105 6.74414C62.9105 7.09961 62.848 7.42383 62.723 7.7168C62.6019 8.00586 62.4241 8.25586 62.1898 8.4668C61.9554 8.67383 61.6722 8.83398 61.3402 8.94727C61.012 9.06055 60.6448 9.11719 60.2386 9.11719C59.8441 9.11719 59.471 9.0625 59.1195 8.95312C58.7679 8.83984 58.4573 8.66992 58.1878 8.44336C57.9222 8.21289 57.7132 7.92188 57.5609 7.57031C57.4085 7.21484 57.3323 6.79492 57.3323 6.31055H59.0491C59.0491 6.56836 59.0745 6.78906 59.1253 6.97266C59.1761 7.15234 59.2542 7.29688 59.3597 7.40625C59.4652 7.51172 59.5941 7.5918 59.7464 7.64648C59.9027 7.69727 60.0804 7.72266 60.2796 7.72266C60.5062 7.72266 60.6859 7.67969 60.8187 7.59375C60.9554 7.50781 61.053 7.39258 61.1116 7.24805C61.1702 7.10352 61.1995 6.93945 61.1995 6.75586ZM69.7591 3.92578V5.34375H66.2611V3.92578H69.7591ZM66.7474 0.46875V9H65.0306V0.46875H66.7474ZM71.0013 0.46875V9H69.3021V0.46875H71.0013ZM75.143 0.46875V9H73.4379V0.46875H75.143ZM80.4741 5.99414H78.728V4.57031H80.4741C80.7162 4.57031 80.9135 4.51562 81.0659 4.40625C81.2221 4.29688 81.3354 4.14648 81.4057 3.95508C81.476 3.75977 81.5112 3.54102 81.5112 3.29883C81.5112 3.05273 81.4741 2.82422 81.3998 2.61328C81.3295 2.39844 81.2182 2.22461 81.0659 2.0918C80.9174 1.95898 80.7202 1.89258 80.4741 1.89258H79.2787V9H77.5678V0.46875H80.4741C81.0483 0.46875 81.5424 0.589844 81.9565 0.832031C82.3705 1.07422 82.687 1.4082 82.9057 1.83398C83.1284 2.25586 83.2397 2.74023 83.2397 3.28711C83.2397 3.83789 83.1284 4.31641 82.9057 4.72266C82.687 5.125 82.3705 5.4375 81.9565 5.66016C81.5424 5.88281 81.0483 5.99414 80.4741 5.99414Z" fill="url(#paint0_linear_533_143)"/>
<defs>
<linearGradient id="paint0_linear_533_143" x1="-5.22278" y1="-28.25" x2="18.601" y2="22.6681" gradientUnits="userSpaceOnUse">
<stop stop-color="#A54E2B"/>
<stop offset="1" stop-color="#DC9853"/>
</linearGradient>
</defs>
</svg>
