<svg width="88" height="16" viewBox="0 0 88 16" fill="none" xmlns="http://www.w3.org/2000/svg">
<path d="M16 8C16 3.58172 12.4183 0 8 0C3.58172 0 0 3.58172 0 8C0 11.993 2.92547 15.3027 6.75 15.9028V10.3125H4.71875V8H6.75V6.2375C6.75 4.2325 7.94438 3.125 9.77172 3.125C10.6467 3.125 11.5625 3.28125 11.5625 3.28125V5.25H10.5538C9.56 5.25 9.25 5.86672 9.25 6.5V8H11.4688L11.1141 10.3125H9.25V15.9028C13.0745 15.3027 16 11.993 16 8Z" fill="#FFD2A4"/>
<g clip-path="url(#clip0_903_22)">
<path d="M41.0334 14.5C47.0697 14.5 50.3722 9.4978 50.3722 5.16124C50.3722 5.02062 50.3691 4.87687 50.3628 4.73624C51.0053 4.27164 51.5597 3.69617 52 3.03687C51.4017 3.30307 50.7664 3.47692 50.1159 3.55249C50.8009 3.14194 51.3137 2.49698 51.5594 1.73718C50.915 2.11904 50.2104 2.38841 49.4756 2.53374C48.9806 2.00771 48.326 1.65941 47.6131 1.5427C46.9003 1.42599 46.1688 1.54737 45.5318 1.88806C44.8949 2.22876 44.3879 2.7698 44.0892 3.42754C43.7906 4.08528 43.717 4.82308 43.8797 5.52687C42.575 5.46139 41.2986 5.12247 40.1333 4.53207C38.968 3.94166 37.9398 3.11296 37.1153 2.09968C36.6963 2.82216 36.568 3.6771 36.7567 4.49073C36.9453 5.30436 37.4367 6.01563 38.1309 6.47999C37.6098 6.46344 37.1 6.32312 36.6438 6.07062V6.11124C36.6433 6.86943 36.9054 7.60439 37.3855 8.19118C37.8657 8.77797 38.5342 9.18037 39.2775 9.32999C38.7947 9.46209 38.288 9.48133 37.7966 9.38624C38.0063 10.0383 38.4144 10.6086 38.9638 11.0176C39.5133 11.4265 40.1767 11.6537 40.8616 11.6675C39.6989 12.5807 38.2628 13.0761 36.7844 13.0737C36.5222 13.0733 36.2603 13.0573 36 13.0256C37.5019 13.9892 39.249 14.5009 41.0334 14.5Z" fill="#FFD2A4"/>
</g>
<path d="M86.8156 0H73.1812C72.5281 0 72 0.515625 72 1.15313V14.8438C72 15.4813 72.5281 16 73.1812 16H86.8156C87.4688 16 88 15.4813 88 14.8469V1.15313C88 0.515625 87.4688 0 86.8156 0ZM76.7469 13.6344H74.3719V5.99687H76.7469V13.6344ZM75.5594 4.95625C74.7969 4.95625 74.1813 4.34062 74.1813 3.58125C74.1813 2.82188 74.7969 2.20625 75.5594 2.20625C76.3188 2.20625 76.9344 2.82188 76.9344 3.58125C76.9344 4.3375 76.3188 4.95625 75.5594 4.95625ZM85.6344 13.6344H83.2625V9.92188C83.2625 9.0375 83.2469 7.89687 82.0281 7.89687C80.7937 7.89687 80.6062 8.8625 80.6062 9.85938V13.6344H78.2375V5.99687H80.5125V7.04063H80.5437C80.8594 6.44063 81.6344 5.80625 82.7875 5.80625C85.1906 5.80625 85.6344 7.3875 85.6344 9.44375V13.6344V13.6344Z" fill="#FFD2A4"/>
<defs>
<clipPath id="clip0_903_22">
<rect width="16" height="16" fill="white" transform="translate(36)"/>
</clipPath>
</defs>
</svg>
