<svg width="102" height="10" viewBox="0 0 102 10" fill="none" xmlns="http://www.w3.org/2000/svg">
<path d="M4.52344 0.46875H6.23438V6.32812C6.23438 6.98438 6.11328 7.51953 5.87109 7.93359C5.63281 8.34375 5.30273 8.64453 4.88086 8.83594C4.45898 9.02344 3.97656 9.11719 3.43359 9.11719C2.88672 9.11719 2.40039 9.02344 1.97461 8.83594C1.54883 8.64453 1.2168 8.34375 0.978516 7.93359C0.744141 7.51953 0.626953 6.98438 0.626953 6.32812V0.46875H2.33789V6.32812C2.33789 6.69922 2.37891 6.98438 2.46094 7.18359C2.54688 7.38281 2.66992 7.51953 2.83008 7.59375C2.99414 7.66406 3.19531 7.69922 3.43359 7.69922C3.67578 7.69922 3.875 7.66406 4.03125 7.59375C4.19141 7.51953 4.3125 7.38281 4.39453 7.18359C4.48047 6.98438 4.52344 6.69922 4.52344 6.32812V0.46875ZM11.4131 5.99414H9.66703V4.57031H11.4131C11.6553 4.57031 11.8526 4.51562 12.0049 4.40625C12.1612 4.29688 12.2745 4.14648 12.3448 3.95508C12.4151 3.75977 12.4502 3.54102 12.4502 3.29883C12.4502 3.05273 12.4131 2.82422 12.3389 2.61328C12.2686 2.39844 12.1573 2.22461 12.0049 2.0918C11.8565 1.95898 11.6592 1.89258 11.4131 1.89258H10.2178V9H8.50688V0.46875H11.4131C11.9873 0.46875 12.4815 0.589844 12.8955 0.832031C13.3096 1.07422 13.626 1.4082 13.8448 1.83398C14.0674 2.25586 14.1788 2.74023 14.1788 3.28711C14.1788 3.83789 14.0674 4.31641 13.8448 4.72266C13.626 5.125 13.3096 5.4375 12.8955 5.66016C12.4815 5.88281 11.9873 5.99414 11.4131 5.99414ZM20.3536 6.1582H22.0587C22.0352 6.79883 21.9063 7.33984 21.672 7.78125C21.4376 8.21875 21.1036 8.55078 20.67 8.77734C20.2403 9.00391 19.7208 9.11719 19.1114 9.11719C18.6388 9.11719 18.2188 9.03906 17.8516 8.88281C17.4845 8.72266 17.172 8.48828 16.9141 8.17969C16.6563 7.87109 16.461 7.49023 16.3282 7.03711C16.1993 6.58008 16.1348 6.05469 16.1348 5.46094V4.01367C16.1348 3.41992 16.2032 2.89453 16.3399 2.4375C16.4805 1.98047 16.6798 1.59766 16.9376 1.28906C17.1993 0.976563 17.5138 0.742188 17.8809 0.585938C18.252 0.425781 18.67 0.345703 19.1348 0.345703C19.7559 0.345703 20.2755 0.462891 20.6934 0.697266C21.1114 0.931641 21.4337 1.27344 21.6602 1.72266C21.8907 2.16797 22.0294 2.71289 22.0763 3.35742H20.3653C20.3536 2.95117 20.3067 2.63281 20.2247 2.40234C20.1466 2.16797 20.0216 2.00391 19.8497 1.91016C19.6778 1.8125 19.4395 1.76367 19.1348 1.76367C18.9083 1.76367 18.713 1.80469 18.5489 1.88672C18.3848 1.96484 18.2501 2.0918 18.1446 2.26758C18.0391 2.44336 17.961 2.67383 17.9102 2.95898C17.8634 3.24414 17.8399 3.5918 17.8399 4.00195V5.46094C17.8399 5.86328 17.8614 6.20703 17.9044 6.49219C17.9473 6.77344 18.0157 7.00391 18.1095 7.18359C18.2032 7.36328 18.3302 7.49414 18.4903 7.57617C18.6544 7.6582 18.8614 7.69922 19.1114 7.69922C19.4005 7.69922 19.6329 7.65625 19.8087 7.57031C19.9884 7.48438 20.1212 7.33008 20.2071 7.10742C20.293 6.88477 20.3419 6.56836 20.3536 6.1582ZM30.0851 4.07227V5.49609C30.0851 6.09766 30.0109 6.625 29.8624 7.07812C29.7179 7.52734 29.5109 7.9043 29.2413 8.20898C28.9757 8.50977 28.6534 8.73633 28.2745 8.88867C27.8995 9.04102 27.4835 9.11719 27.0265 9.11719C26.5695 9.11719 26.1515 9.04102 25.7726 8.88867C25.3976 8.73633 25.0734 8.50977 24.7999 8.20898C24.5304 7.9043 24.3214 7.52734 24.173 7.07812C24.0245 6.625 23.9503 6.09766 23.9503 5.49609V4.07227C23.9503 3.45508 24.0226 2.91602 24.1671 2.45508C24.3116 1.99023 24.5206 1.60352 24.7941 1.29492C25.0675 0.982422 25.3917 0.748047 25.7667 0.591797C26.1417 0.431641 26.5577 0.351562 27.0148 0.351562C27.4718 0.351562 27.8878 0.431641 28.2628 0.591797C28.6378 0.748047 28.962 0.982422 29.2355 1.29492C29.5089 1.60352 29.7179 1.99023 29.8624 2.45508C30.0109 2.91602 30.0851 3.45508 30.0851 4.07227ZM28.38 5.49609V4.06055C28.38 3.6543 28.3507 3.30859 28.2921 3.02344C28.2335 2.73438 28.1456 2.49805 28.0284 2.31445C27.9112 2.13086 27.7687 1.99609 27.6007 1.91016C27.4327 1.82422 27.2374 1.78125 27.0148 1.78125C26.7921 1.78125 26.5948 1.82422 26.423 1.91016C26.255 1.99609 26.1124 2.13086 25.9952 2.31445C25.882 2.49805 25.796 2.73438 25.7374 3.02344C25.6827 3.30859 25.6554 3.6543 25.6554 4.06055V5.49609C25.6554 5.88672 25.6847 6.2207 25.7433 6.49805C25.8019 6.77539 25.8898 7.00195 26.007 7.17773C26.1241 7.35352 26.2667 7.48438 26.4347 7.57031C26.6066 7.65234 26.8038 7.69336 27.0265 7.69336C27.2452 7.69336 27.4386 7.65234 27.6066 7.57031C27.7784 7.48438 27.921 7.35352 28.0343 7.17773C28.1476 7.00195 28.2335 6.77539 28.2921 6.49805C28.3507 6.2207 28.38 5.88672 28.38 5.49609ZM32.9025 0.46875H34.4084L36.1486 6.30469L37.883 0.46875H39.213L36.7873 9H35.5041L32.9025 0.46875ZM32.2931 0.46875H33.7287L33.9513 6.09375V9H32.2931V0.46875ZM38.5568 0.46875H39.9982V9H38.3459V6.09375L38.5568 0.46875ZM44.1398 0.46875V9H42.4348V0.46875H44.1398ZM52.5295 0.46875V9H50.8713L48.1936 3.66211V9H46.5647V0.46875H48.1995L50.9006 5.86523V0.46875H52.5295ZM60.6673 4.51758V8.0332C60.5462 8.16211 60.3684 8.3125 60.1341 8.48438C59.9036 8.65234 59.6009 8.80078 59.2259 8.92969C58.8548 9.05469 58.4016 9.11719 57.8665 9.11719C57.3938 9.11719 56.9641 9.04297 56.5774 8.89453C56.1946 8.74609 55.8645 8.52148 55.5872 8.2207C55.3138 7.91602 55.1048 7.53711 54.9602 7.08398C54.8157 6.62695 54.7434 6.08594 54.7434 5.46094V4.00781C54.7434 3.39062 54.8118 2.85352 54.9485 2.39648C55.0891 1.93555 55.2923 1.55273 55.5579 1.24805C55.8235 0.943359 56.1399 0.716797 56.5071 0.568359C56.8782 0.419922 57.2962 0.345703 57.761 0.345703C58.4016 0.345703 58.927 0.453125 59.3372 0.667969C59.7513 0.882813 60.0638 1.20117 60.2747 1.62305C60.4895 2.04492 60.6184 2.5625 60.6614 3.17578H59.0032C58.9759 2.81641 58.9153 2.53516 58.8216 2.33203C58.7317 2.12891 58.6048 1.98438 58.4407 1.89844C58.2766 1.80859 58.0638 1.76367 57.802 1.76367C57.5755 1.76367 57.3782 1.80469 57.2102 1.88672C57.0423 1.96484 56.9016 2.09375 56.7884 2.27344C56.6751 2.45312 56.5911 2.68359 56.5364 2.96484C56.4817 3.24609 56.4544 3.58984 56.4544 3.99609V5.46094C56.4544 5.86328 56.4856 6.20703 56.5481 6.49219C56.6106 6.77734 56.7024 7.00977 56.8235 7.18945C56.9485 7.36914 57.1048 7.5 57.2923 7.58203C57.4837 7.66016 57.7083 7.69922 57.9661 7.69922C58.1731 7.69922 58.3391 7.67773 58.4641 7.63477C58.5891 7.5918 58.6888 7.54688 58.763 7.5C58.8411 7.44922 58.9055 7.41016 58.9563 7.38281V5.8125H57.7317V4.51758H60.6673ZM71.4818 7.58203V9H67.7728V7.58203H71.4818ZM68.306 0.46875V9H66.5892V0.46875H68.306ZM70.9837 3.92578V5.30273H67.7728V3.92578H70.9837ZM71.4701 0.46875V1.89258H67.7728V0.46875H71.4701ZM76.098 7.17773L77.7152 0.46875H79.5668L77.0941 9H75.8461L76.098 7.17773ZM74.7152 0.46875L76.3266 7.17773L76.5902 9H75.3363L72.8812 0.46875H74.7152ZM86.2338 7.58203V9H82.5248V7.58203H86.2338ZM83.058 0.46875V9H81.3412V0.46875H83.058ZM85.7358 3.92578V5.30273H82.5248V3.92578H85.7358ZM86.2221 0.46875V1.89258H82.5248V0.46875H86.2221ZM94.1606 0.46875V9H92.5024L89.8247 3.66211V9H88.1958V0.46875H89.8305L92.5317 5.86523V0.46875H94.1606ZM99.7261 0.46875V9H98.021V0.46875H99.7261ZM101.847 0.46875V1.89258H95.9409V0.46875H101.847Z" fill="url(#paint0_linear_528_18)"/>
<defs>
<linearGradient id="paint0_linear_528_18" x1="-6.40413" y1="-28.25" x2="14.2684" y2="25.9268" gradientUnits="userSpaceOnUse">
<stop stop-color="#A54E2B"/>
<stop offset="1" stop-color="#DC9853"/>
</linearGradient>
</defs>
</svg>
